# xmcd
#
# Track frame offsets: 
#        150
#        15691
#        46523
#        65042
#        83310
#        99502
#        124177
#        138943
#        155469
#        168117
#        187364
#        201423
#        214228
#        229218
#        250560
#        269134
#        288987
#        312378
#
# Disc length: 4563 seconds
#
# Revision: 2
# Processed by: cddbd v1.5.1PL0 Copyright (c) Steve Scherf et al.
# Submitted via: ExactAudioCopy v0.95b2
#
DISCID=0311d112
DTITLE=Various Artist - The Piano and The Song CD 02
DYEAR=2004
DGENRE=Oldies
TTITLE0=Simply Red - If You Don't Know Me By Now
TTITLE1=Prince - Sometimes It Snows In April
TTITLE2=Dragon - Are You Old Enough
TTITLE3=Toto - Rosanna
TTITLE4=Nina Simone - Here Comes The Sun
TTITLE5=Coldplay - Everything's Not Lost
TTITLE6=Paul Kelly and The Coloured Girls - To Her Door
TTITLE7=The Cure - Close To Me
TTITLE8=Stevie Wonder - For Once In My Life
TTITLE9=The Commodores - Easy
TTITLE10=Elvis Costello With The London Symphony Orchestra - She
TTITLE11=Joe Cocker - Delta Lady
TTITLE12=Cat Stevens - Wild World
TTITLE13=Chicago - Hard Habit To Break
TTITLE14=Brian Cadd - Ginger Man
TTITLE15=Rod Stewart - Handbags and Gladrags
TTITLE16=Steve Winwood - While You See A Chance
TTITLE17=Dire Straights - Private Investigations
EXTD=
EXTT0=
EXTT1=
EXTT2=
EXTT3=
EXTT4=
EXTT5=
EXTT6=
EXTT7=
EXTT8=
EXTT9=
EXTT10=
EXTT11=
EXTT12=
EXTT13=
EXTT14=
EXTT15=
EXTT16=
EXTT17=
PLAYORDER=
